<svg width="232" height="38" viewBox="0 0 232 38" fill="none" xmlns="http://www.w3.org/2000/svg">
<path d="M24.2 23.752C24.2 24.808 24.152 25.72 24.056 26.488H8.264C8.52 28.632 9.128 30.136 10.088 31C11.048 31.864 12.376 32.296 14.072 32.296C15.096 32.296 16.088 32.12 17.048 31.768C18.008 31.384 19.048 30.808 20.168 30.04L23.288 34.264C20.312 36.632 17 37.816 13.352 37.816C9.224 37.816 6.056 36.6 3.848 34.168C1.64 31.736 0.535995 28.472 0.535995 24.376C0.535995 21.784 0.999996 19.464 1.928 17.416C2.856 15.336 4.216 13.704 6.008 12.52C7.8 11.304 9.944 10.696 12.44 10.696C16.12 10.696 19 11.848 21.08 14.152C23.16 16.456 24.2 19.656 24.2 23.752ZM16.76 21.592C16.696 17.688 15.32 15.736 12.632 15.736C11.32 15.736 10.296 16.216 9.56 17.176C8.856 18.136 8.424 19.72 8.264 21.928H16.76V21.592Z" fill="url(#paint0_linear_13_178)"/>
<path d="M52.2684 1.38399V37H45.5484L45.1644 34.024C43.3724 36.552 40.9564 37.816 37.9164 37.816C34.7484 37.816 32.3324 36.6 30.6684 34.168C29.0364 31.736 28.2204 28.408 28.2204 24.184C28.2204 21.592 28.6524 19.272 29.5164 17.224C30.3804 15.176 31.5964 13.576 33.1644 12.424C34.7644 11.272 36.5884 10.696 38.6364 10.696C41.0684 10.696 43.0844 11.496 44.6844 13.096V0.567993L52.2684 1.38399ZM40.2684 32.248C42.0284 32.248 43.5004 31.288 44.6844 29.368V18.376C44.0764 17.64 43.4524 17.096 42.8124 16.744C42.2044 16.392 41.5004 16.216 40.7004 16.216C39.2924 16.216 38.1724 16.872 37.3404 18.184C36.5084 19.496 36.0924 21.512 36.0924 24.232C36.0924 27.208 36.4444 29.288 37.1484 30.472C37.8844 31.656 38.9244 32.248 40.2684 32.248Z" fill="url(#paint1_linear_13_178)"/>
<path d="M80.6656 37H74.0896L73.7536 33.784C71.8976 36.472 69.3216 37.816 66.0256 37.816C63.6896 37.816 61.9136 37.112 60.6976 35.704C59.5136 34.296 58.9216 32.328 58.9216 29.8V11.512H66.5056V28.84C66.5056 30.088 66.6976 30.968 67.0816 31.48C67.4976 31.96 68.1216 32.2 68.9536 32.2C70.5536 32.2 71.9296 31.208 73.0816 29.224V11.512H80.6656V37Z" fill="url(#paint2_linear_13_178)"/>
<path d="M107.846 29.608C107.846 30.568 107.974 31.272 108.23 31.72C108.518 32.168 108.966 32.504 109.574 32.728L107.99 37.672C106.422 37.544 105.142 37.208 104.15 36.664C103.158 36.088 102.39 35.192 101.846 33.976C100.182 36.536 97.6224 37.816 94.1664 37.816C91.6384 37.816 89.6224 37.08 88.1184 35.608C86.6144 34.136 85.8624 32.216 85.8624 29.848C85.8624 27.064 86.8864 24.936 88.9344 23.464C90.9824 21.992 93.9424 21.256 97.8144 21.256H100.406V20.152C100.406 18.648 100.086 17.624 99.4464 17.08C98.8064 16.504 97.6864 16.216 96.0864 16.216C95.2544 16.216 94.2464 16.344 93.0624 16.6C91.8784 16.824 90.6624 17.144 89.4144 17.56L87.6864 12.568C89.2864 11.96 90.9184 11.496 92.5824 11.176C94.2784 10.856 95.8464 10.696 97.2864 10.696C100.934 10.696 103.606 11.448 105.302 12.952C106.998 14.456 107.846 16.712 107.846 19.72V29.608ZM96.3744 32.392C98.1024 32.392 99.4464 31.576 100.406 29.944V25.432H98.5344C96.8064 25.432 95.5104 25.736 94.6464 26.344C93.8144 26.952 93.3984 27.896 93.3984 29.176C93.3984 30.2 93.6544 31 94.1664 31.576C94.7104 32.12 95.4464 32.392 96.3744 32.392Z" fill="url(#paint3_linear_13_178)"/>
<path d="M128.671 10.792C129.599 10.792 130.447 10.904 131.215 11.128L130.015 18.472C129.055 18.248 128.287 18.136 127.711 18.136C126.207 18.136 125.055 18.664 124.255 19.72C123.487 20.744 122.879 22.296 122.431 24.376V37H114.847V11.512H121.471L122.095 16.456C122.671 14.696 123.535 13.32 124.687 12.328C125.871 11.304 127.199 10.792 128.671 10.792Z" fill="url(#paint4_linear_13_178)"/>
<path d="M156.468 1.38399V37H149.748L149.364 34.024C147.572 36.552 145.156 37.816 142.116 37.816C138.948 37.816 136.532 36.6 134.868 34.168C133.236 31.736 132.42 28.408 132.42 24.184C132.42 21.592 132.852 19.272 133.716 17.224C134.58 15.176 135.796 13.576 137.364 12.424C138.964 11.272 140.788 10.696 142.836 10.696C145.268 10.696 147.284 11.496 148.884 13.096V0.567993L156.468 1.38399ZM144.468 32.248C146.228 32.248 147.7 31.288 148.884 29.368V18.376C148.276 17.64 147.652 17.096 147.012 16.744C146.404 16.392 145.7 16.216 144.9 16.216C143.492 16.216 142.372 16.872 141.54 18.184C140.708 19.496 140.292 21.512 140.292 24.232C140.292 27.208 140.644 29.288 141.348 30.472C142.084 31.656 143.124 32.248 144.468 32.248Z" fill="url(#paint5_linear_13_178)"/>
<path d="M174.401 10.696C178.305 10.696 181.361 11.896 183.569 14.296C185.777 16.664 186.881 19.992 186.881 24.28C186.881 27 186.369 29.384 185.345 31.432C184.353 33.448 182.913 35.016 181.025 36.136C179.169 37.256 176.961 37.816 174.401 37.816C170.529 37.816 167.473 36.632 165.233 34.264C163.025 31.864 161.921 28.52 161.921 24.232C161.921 21.512 162.417 19.144 163.409 17.128C164.433 15.08 165.873 13.496 167.729 12.376C169.617 11.256 171.841 10.696 174.401 10.696ZM174.401 16.264C172.865 16.264 171.713 16.92 170.945 18.232C170.177 19.512 169.793 21.512 169.793 24.232C169.793 27.016 170.161 29.048 170.897 30.328C171.665 31.608 172.833 32.248 174.401 32.248C175.937 32.248 177.089 31.608 177.857 30.328C178.625 29.016 179.009 27 179.009 24.28C179.009 21.496 178.625 19.464 177.857 18.184C177.121 16.904 175.969 16.264 174.401 16.264Z" fill="url(#paint6_linear_13_178)"/>
<path d="M206.896 2.91999C211.184 2.91999 214.88 4.27999 217.984 7L214 11.176C212.816 10.28 211.712 9.63999 210.688 9.256C209.696 8.84 208.544 8.632 207.232 8.632C204.768 8.632 202.8 9.608 201.328 11.56C199.856 13.48 199.12 16.408 199.12 20.344C199.12 24.6 199.68 27.624 200.8 29.416C201.92 31.176 203.664 32.056 206.032 32.056C207.696 32.056 209.2 31.688 210.544 30.952V23.416H206.224L205.456 17.848H218.176V34.312C216.448 35.432 214.544 36.296 212.464 36.904C210.384 37.512 208.304 37.816 206.224 37.816C201.168 37.816 197.36 36.344 194.8 33.4C192.24 30.424 190.96 26.072 190.96 20.344C190.96 16.696 191.648 13.56 193.024 10.936C194.432 8.312 196.336 6.328 198.736 4.98399C201.168 3.60799 203.888 2.91999 206.896 2.91999Z" fill="url(#paint7_linear_13_178)"/>
<path d="M227.034 29.128C228.218 29.128 229.226 29.56 230.058 30.424C230.922 31.256 231.354 32.264 231.354 33.448C231.354 34.664 230.922 35.704 230.058 36.568C229.226 37.4 228.218 37.816 227.034 37.816C225.818 37.816 224.778 37.4 223.914 36.568C223.082 35.704 222.666 34.664 222.666 33.448C222.666 32.264 223.082 31.256 223.914 30.424C224.778 29.56 225.818 29.128 227.034 29.128Z" fill="url(#paint8_linear_13_178)"/>
<defs>
<linearGradient id="paint0_linear_13_178" x1="115.945" y1="0.567993" x2="115.945" y2="37.816" gradientUnits="userSpaceOnUse">
<stop stop-color="#7CBE28"/>
<stop offset="1" stop-color="#4D9620"/>
</linearGradient>
<linearGradient id="paint1_linear_13_178" x1="115.945" y1="0.567993" x2="115.945" y2="37.816" gradientUnits="userSpaceOnUse">
<stop stop-color="#7CBE28"/>
<stop offset="1" stop-color="#4D9620"/>
</linearGradient>
<linearGradient id="paint2_linear_13_178" x1="115.945" y1="0.567993" x2="115.945" y2="37.816" gradientUnits="userSpaceOnUse">
<stop stop-color="#7CBE28"/>
<stop offset="1" stop-color="#4D9620"/>
</linearGradient>
<linearGradient id="paint3_linear_13_178" x1="115.945" y1="0.567993" x2="115.945" y2="37.816" gradientUnits="userSpaceOnUse">
<stop stop-color="#7CBE28"/>
<stop offset="1" stop-color="#4D9620"/>
</linearGradient>
<linearGradient id="paint4_linear_13_178" x1="115.945" y1="0.567993" x2="115.945" y2="37.816" gradientUnits="userSpaceOnUse">
<stop stop-color="#7CBE28"/>
<stop offset="1" stop-color="#4D9620"/>
</linearGradient>
<linearGradient id="paint5_linear_13_178" x1="115.945" y1="0.567993" x2="115.945" y2="37.816" gradientUnits="userSpaceOnUse">
<stop stop-color="#7CBE28"/>
<stop offset="1" stop-color="#4D9620"/>
</linearGradient>
<linearGradient id="paint6_linear_13_178" x1="115.945" y1="0.567993" x2="115.945" y2="37.816" gradientUnits="userSpaceOnUse">
<stop stop-color="#7CBE28"/>
<stop offset="1" stop-color="#4D9620"/>
</linearGradient>
<linearGradient id="paint7_linear_13_178" x1="115.945" y1="0.567993" x2="115.945" y2="37.816" gradientUnits="userSpaceOnUse">
<stop stop-color="#7CBE28"/>
<stop offset="1" stop-color="#4D9620"/>
</linearGradient>
<linearGradient id="paint8_linear_13_178" x1="115.945" y1="0.567993" x2="115.945" y2="37.816" gradientUnits="userSpaceOnUse">
<stop stop-color="#7CBE28"/>
<stop offset="1" stop-color="#4D9620"/>
</linearGradient>
</defs>
</svg>
